<svg width="41" height="22" viewBox="0 0 41 22" fill="none" xmlns="http://www.w3.org/2000/svg">
<path d="M27.6797 1.71094C27.6797 3.0156 28.3823 4.38858 29.8945 5.34007C30.1734 5.51558 30.5289 5.51402 30.8044 5.33317C32.2291 4.3979 32.9062 3.02056 32.9062 1.71094V1.46875C32.9062 0.916465 33.354 0.46875 33.9063 0.46875H34.9531C35.5054 0.46875 35.9531 0.916465 35.9531 1.46875V1.71094C35.9334 3.34542 36.7245 4.9468 38.6599 5.8895C39.2546 6.17913 39.5512 6.91124 39.2083 7.4768L38.9551 7.89442C38.7192 8.28337 38.2476 8.4706 37.8254 8.30123C36.6031 7.81088 35.6774 7.08394 35.0142 6.19125C34.7153 5.78889 34.0324 5.77943 33.7234 6.17406C33.1777 6.8709 32.4629 7.47062 31.559 7.91837C31.3709 8.01153 31.4356 8.36719 31.6455 8.36719C31.7463 8.36719 31.8281 8.44897 31.8281 8.54986V9.29297C31.8281 9.80426 32.2426 10.2188 32.7539 10.2188H39.0547C39.607 10.2188 40.0547 10.6665 40.0547 11.2188V11.6328C40.0547 12.1851 39.607 12.6328 39.0547 12.6328H21.6016C21.0493 12.6328 20.6016 12.1851 20.6016 11.6328V11.2187C20.6016 10.6665 21.0493 10.2188 21.6016 10.2188H27.9023C28.4136 10.2188 28.8281 9.80426 28.8281 9.29297V8.55906C28.8281 8.45309 28.914 8.36719 29.02 8.36719C29.2392 8.36719 29.3074 8.0012 29.1117 7.90245C28.2115 7.44823 27.5022 6.85195 26.9614 6.16901C26.6382 5.7608 25.926 5.76992 25.6143 6.18697C24.9535 7.07089 24.0373 7.80112 22.833 8.29512C22.4104 8.46848 21.9359 8.28148 21.699 7.89089L21.4464 7.47427C21.1039 6.90948 21.3994 6.17768 21.9903 5.88254C23.9163 4.92056 24.7266 3.26614 24.7266 1.71094V1.46875C24.7266 0.916465 25.1743 0.46875 25.7266 0.46875H26.6797C27.232 0.46875 27.6797 0.916465 27.6797 1.46875V1.71094ZM36.7344 14.2266C37.2867 14.2266 37.7344 14.6743 37.7344 15.2266V20.3281C37.7344 20.8804 37.2867 21.3281 36.7344 21.3281H35.7578C35.2055 21.3281 34.7578 20.8804 34.7578 20.3281V17.5703C34.7578 17.018 34.3101 16.5703 33.7578 16.5703H23.7109C23.1587 16.5703 22.7109 16.1226 22.7109 15.5703V15.2266C22.7109 14.6743 23.1587 14.2266 23.7109 14.2266H36.7344Z" fill="url(#paint0_linear_724_886)"/>
<path d="M18.5469 2.8125C19.0992 2.8125 19.5469 3.26022 19.5469 3.8125V4.22656C19.5469 4.77885 19.0992 5.22656 18.5469 5.22656H17.7813C17.229 5.22656 16.7812 5.67428 16.7812 6.22656V6.40625C16.7812 6.95853 17.229 7.40625 17.7813 7.40625H18.5469C19.0992 7.40625 19.5469 7.85397 19.5469 8.40625V8.89063C19.5469 9.44291 19.0992 9.89062 18.5469 9.89062H17.7813C17.229 9.89062 16.7812 10.3383 16.7812 10.8906V11.5859C16.7812 12.1382 16.3335 12.5859 15.7812 12.5859H14.7812C14.229 12.5859 13.7812 12.1382 13.7812 11.5859V1C13.7812 0.447715 14.229 0 14.7813 0H15.7813C16.3335 0 16.7812 0.447715 16.7812 1V1.8125C16.7812 2.36478 17.229 2.8125 17.7813 2.8125H18.5469ZM15.7813 13.4297C16.3335 13.4297 16.7812 13.8774 16.7812 14.4297V20.3281C16.7812 20.8804 16.3335 21.3281 15.7812 21.3281H14.7812C14.229 21.3281 13.7812 20.8804 13.7812 20.3281V16.8438C13.7812 16.2915 13.3335 15.8438 12.7813 15.8438H3.41406C2.86178 15.8438 2.41406 15.396 2.41406 14.8437V14.4297C2.41406 13.8774 2.86178 13.4297 3.41406 13.4297H15.7813ZM5.85938 1.17188C9.16406 1.14844 11.6719 3.35156 11.6719 6.35156C11.6719 9.42188 9.16406 11.5781 5.85938 11.5781C2.53125 11.5781 0 9.42188 0 6.35156C0 3.35156 2.53125 1.14844 5.85938 1.17188ZM5.85938 3.72656C4.17188 3.72656 2.92969 4.6875 2.95312 6.35156C2.92969 8.0625 4.17188 9.04688 5.85938 9.04688C7.5 9.04688 8.74219 8.0625 8.76562 6.35156C8.74219 4.6875 7.5 3.72656 5.85938 3.72656Z" fill="url(#paint1_linear_724_886)"/>
<defs>
<linearGradient id="paint0_linear_724_886" x1="35.7266" y1="1.17187" x2="6.72656" y2="19.1719" gradientUnits="userSpaceOnUse">
<stop stop-color="#1CBBDA"/>
<stop offset="1" stop-color="#25CC87"/>
</linearGradient>
<linearGradient id="paint1_linear_724_886" x1="35.7266" y1="1.17187" x2="6.72656" y2="19.1719" gradientUnits="userSpaceOnUse">
<stop stop-color="#1CBBDA"/>
<stop offset="1" stop-color="#25CC87"/>
</linearGradient>
</defs>
</svg>
